PathFileType	4	(X/Y/Z)	/Users/itak/Documents/Research/Walk-IL/dataset/trc/00373_00011.trc
DataRate	CameraRate	NumFrames	NumMarkers	Units	OrigDataRate	OrigDataStartFrame	OrigNumFrames
100.000000	100.000000	4	54	mm	100.000000	479	548
Frame#	Time	RPSI			LPSI			L3			STRN			T10			C7			CLAV			RBAK			LBAK			LSHO			LUPA			LAEL			LAOL			LWTS			LWPS			LFRA			LHPS			LHTS			RSHO			RUPA			RAEL			RAOL			RWTS			RWPS			RFRA			RIFD			RHTS			RHPS			RBHD			LFHD			RFHD			LBHD			LHIP			RHIP			RASI			LASI			LKNE			LTHI			LANK			LTIP			LTOE			LMT1			LMT5			LHEE			RKNE			RTHI			RANK			RTIP			RTOE			RMT1			RMT5			RHEE			LIFD			*53			
		X1	Y1	Z1	X2	Y2	Z2	X3	Y3	Z3	X4	Y4	Z4	X5	Y5	Z5	X6	Y6	Z6	X7	Y7	Z7	X8	Y8	Z8	X9	Y9	Z9	X10	Y10	Z10	X11	Y11	Z11	X12	Y12	Z12	X13	Y13	Z13	X14	Y14	Z14	X15	Y15	Z15	X16	Y16	Z16	X17	Y17	Z17	X18	Y18	Z18	X19	Y19	Z19	X20	Y20	Z20	X21	Y21	Z21	X22	Y22	Z22	X23	Y23	Z23	X24	Y24	Z24	X25	Y25	Z25	X26	Y26	Z26	X27	Y27	Z27	X28	Y28	Z28	X29	Y29	Z29	X30	Y30	Z30	X31	Y31	Z31	X32	Y32	Z32	X33	Y33	Z33	X34	Y34	Z34	X35	Y35	Z35	X36	Y36	Z36	X37	Y37	Z37	X38	Y38	Z38	X39	Y39	Z39	X40	Y40	Z40	X41	Y41	Z41	X42	Y42	Z42	X43	Y43	Z43	X44	Y44	Z44	X45	Y45	Z45	X46	Y46	Z46	X47	Y47	Z47	X48	Y48	Z48	X49	Y49	Z49	X50	Y50	Z50	X51	Y51	Z51	X52	Y52	Z52	X53	Y53	Z53	X54	Y54	Z54	

480	4.79	32.55754089355469	976.392822265625	1057.635375976562	160.6198425292969	973.8937377929688	1057.096801757812	95.55616760253906	1023.971435546875	1055.982666015625	113.6927108764648	1229.771240234375	1264.971801757812	113.598518371582	1140.39892578125	1034.044067382812	148.3992767333984	1390.971801757812	1051.545532226562	129.0079345703125	1351.10302734375	1211.5673828125	72.96012115478516	1252.336181640625	1015.14599609375	246.3559417724609	1345.098510742188	1049.162109375	299.1483764648438	1366.886840820312	1135.12109375	357.7083435058594	1240.4873046875	1134.280151367188	358.5149841308594	1041.480346679688	1184.578735351562	305.8343505859375	1020.528381347656	1120.930541992188	293.2513427734375	842.7721557617188	1340.315307617188	343.6134338378906	811.803955078125	1304.496215820312	357.2463989257812	942.1414794921875	1223.285034179688	325.934326171875	745.114990234375	1319.466430664062	294.0243530273438	765.9669799804688	1370.453369140625	-18.72296333312988	1396.078002929688	1098.121704101562	-85.64461517333984	1335.845703125	1088.1376953125	-151.2484130859375	1076.369262695312	1115.935180664062	-68.04327392578125	1057.325927734375	1076.393798828125	-119.0505065917969	847.4656372070312	1231.118041992188	-193.3651428222656	844.537353515625	1212.499145507812	-167.4309387207031	1012.638488769531	1147.234619140625	-153.1218414306641	678.3796997070312	1253.009521484375	-144.2637939453125	748.9869995117188	1265.058715820312	-202.6162719726562	761.27001953125	1229.39599609375	68.66786956787109	1607.781372070312	1086.566284179688	180.6436614990234	1620.12060546875	1261.935180664062	80.59832000732422	1623.385131835938	1247.99267578125	212.9493713378906	1597.78662109375	1079.401123046875	260.5006408691406	916.2784423828125	1150.468994140625	-77.88916015625	927.1088256835938	1137.727294921875	-35.15751647949219	957.8265991210938	1242.505615234375	204.6648254394531	951.6243896484375	1265.155883789062	283.2344665527344	469.1946716308594	1189.881958007812	282.2251586914062	609.2035522460938	1190.011108398438	311.5467224121094	50.01438522338867	1117.870727539062	309.5149536132812	255.7239379882812	1153.069458007812	242.7514801025391	45.94306945800781	1320.254638671875	205.0143432617188	32.05086135864258	1248.76171875	318.5113220214844	43.86677551269531	1243.89208984375	246.0762176513672	41.23943710327148	1081.276611328125	-99.38666534423828	469.6979675292969	1151.093383789062	-100.6152648925781	726.3853759765625	1212.114013671875	-120.9689865112305	50.64979553222656	1108.418701171875	-106.2714157104492	354.8661804199219	1155.182861328125	-59.87655258178711	49.04249954223633	1297.056518554688	-21.54827690124512	42.79470062255859	1240.159423828125	-135.8177337646484	36.90493011474609	1209.8759765625	-76.94401550292969	53.15396881103516	1055.199462890625	263.5295104980469	689.5330200195312	1389.996704101562	nan	nan	nan	
481	4.8	30.10375785827637	976.1771240234375	1058.29248046875	158.1968994140625	973.65576171875	1057.208862304688	93.17359161376953	1023.881652832031	1056.309448242188	112.2333602905273	1229.645141601562	1265.34619140625	111.2946014404297	1140.340454101562	1034.3857421875	146.4491119384766	1390.8935546875	1051.9345703125	127.5653381347656	1350.914428710938	1211.997314453125	70.63954162597656	1252.305908203125	1015.769775390625	244.3424987792969	1344.957153320312	1049.178955078125	297.4561462402344	1366.6123046875	1135.016845703125	355.7379760742188	1240.040405273438	1133.87451171875	356.00146484375	1040.975952148438	1183.695434570312	303.2086486816406	1020.298950195312	1120.019653320312	290.8434448242188	840.146728515625	1337.222045898438	341.3325500488281	809.7147216796875	1301.193481445312	354.6627807617188	941.2968139648438	1221.636108398438	323.9554138183594	742.9195556640625	1315.2626953125	291.8160705566406	763.2523803710938	1366.6083984375	-20.51656150817871	1396.197875976562	1099.153930664062	-87.61995697021484	1336.077880859375	1089.452880859375	-154.4718627929688	1076.96533203125	1118.04736328125	-71.18473052978516	1057.433715820312	1078.622924804688	-124.2949295043945	849.202392578125	1235.774291992188	-197.7776031494141	845.15185546875	1214.552612304688	-170.8186798095703	1013.26513671875	1149.351684570312	-157.0006103515625	680.2001342773438	1259.005737304688	-149.4091186523438	750.9249267578125	1269.969604492188	-206.5583038330078	761.9345703125	1232.128662109375	67.057373046875	1607.631225585938	1086.947631835938	179.3047180175781	1620.096801757812	1262.1533203125	79.22711181640625	1623.43798828125	1248.321655273438	211.3387145996094	1597.52978515625	1079.607666015625	258.1235656738281	915.8653564453125	1150.5458984375	-80.11286926269531	927.2006225585938	1138.856323242188	-36.84179306030273	957.8526000976562	1243.3486328125	203.01611328125	951.4788208007812	1265.209350585938	282.0444641113281	469.2152099609375	1190.3779296875	280.8161926269531	609.1239624023438	1190.465454101562	311.335693359375	50.12198257446289	1117.896850585938	308.8487243652344	255.8935852050781	1153.31982421875	242.6681671142578	45.83132171630859	1320.289672851562	204.8787536621094	31.85039329528809	1248.720336914062	318.3582763671875	44.02975082397461	1243.884643554688	245.9009857177734	41.23536682128906	1081.285766601562	-100.4082641601562	469.5120849609375	1151.577026367188	-102.2379989624023	726.140625	1212.43017578125	-121.0839767456055	50.49764633178711	1108.380126953125	-106.9720993041992	354.6390686035156	1155.319091796875	-59.87186431884766	49.09868621826172	1297.00634765625	-21.5540943145752	42.81639099121094	1240.140258789062	-135.8439636230469	36.87787628173828	1209.851440429688	-77.04824829101562	53.09271621704102	1055.194091796875	261.6487426757812	686.603759765625	1385.1611328125	nan	nan	nan	
482	4.81	27.7874755859375	975.9628295898438	1058.91845703125	155.9022827148438	973.4021606445312	1057.296264648438	90.91450500488281	1023.78955078125	1056.608642578125	110.8500442504883	1229.527465820312	1265.711059570312	109.1071701049805	1140.300048828125	1034.684814453125	144.5566101074219	1390.826538085938	1052.31298828125	126.1592636108398	1350.73388671875	1212.404296875	68.43001556396484	1252.282592773438	1016.362487792969	242.3948822021484	1344.865478515625	1049.1904296875	295.8156127929688	1366.370727539062	1134.91552734375	353.8397827148438	1239.652221679688	1133.469482421875	353.5978088378906	1040.519897460938	1182.7880859375	300.6895141601562	1020.109008789062	1119.09619140625	288.5343017578125	837.5639038085938	1334.07958984375	339.1575317382812	807.68701171875	1297.825073242188	352.1841430664062	940.5297241210938	1219.967163085938	322.0929870605469	740.8121337890625	1311.016845703125	289.7562866210938	760.6697387695312	1362.747680664062	-22.2529182434082	1396.303344726562	1100.134033203125	-89.50602722167969	1336.287963867188	1090.648315429688	-157.447509765625	1077.499267578125	1119.893310546875	-73.96266937255859	1057.503784179688	1080.860717773438	-129.5173034667969	851.0106811523438	1240.406616210938	-202.0239105224609	845.74560546875	1216.4990234375	-174.0106811523438	1013.845703125	1151.2177734375	-160.8160095214844	682.1029663085938	1265.0693359375	-154.6038970947266	753.0152587890625	1275.0009765625	-210.3691558837891	762.6310424804688	1234.8017578125	65.49217224121094	1607.48046875	1087.325561523438	178.0020599365234	1620.080810546875	1262.352661132812	77.89723968505859	1623.50732421875	1248.637084960938	209.7646636962891	1597.269287109375	1079.808349609375	255.8778839111328	915.4341430664062	1150.60595703125	-82.18924713134766	927.3115844726562	1139.935913085938	-38.37738418579102	957.9093017578125	1244.16552734375	201.4819183349609	951.328857421875	1265.231079101562	280.9212646484375	469.2336120605469	1190.769775390625	279.4996643066406	609.051025390625	1190.865844726562	311.1310729980469	50.21149444580078	1117.908813476562	308.2156982421875	256.0639343261719	1153.48193359375	242.5867767333984	45.7137336730957	1320.31591796875	204.7392272949219	31.6493034362793	1248.668334960938	318.2187194824219	44.18389511108398	1243.8779296875	245.7251434326172	41.20804595947266	1081.296264648438	-101.4253921508789	469.3473815917969	1152.06982421875	-103.7290191650391	725.9484252929688	1212.8056640625	-121.2121353149414	50.3315544128418	1108.35302734375	-107.6443710327148	354.4137268066406	1155.546264648438	-59.85394287109375	49.14479446411133	1296.954711914062	-21.55447769165039	42.83306121826172	1240.119140625	-135.861083984375	36.85541534423828	1209.828002929688	-77.14015197753906	53.03472518920898	1055.190795898438	259.8655700683594	683.6673583984375	1380.116577148438	nan	nan	nan	
483	4.82	25.62891387939453	975.7801513671875	1059.501220703125	153.7514495849609	973.142333984375	1057.368774414062	88.79453277587891	1023.696533203125	1056.88134765625	109.5477676391602	1229.420288085938	1266.06591796875	107.0425415039062	1140.282104492188	1034.947143554688	142.7238159179688	1390.771362304688	1052.681274414062	124.7897186279297	1350.566040039062	1212.785766601562	66.33444213867188	1252.267822265625	1016.922119140625	240.513916015625	1344.81298828125	1049.199096679688	294.2310791015625	1366.161254882812	1134.818237304688	352.0115966796875	1239.320678710938	1133.068115234375	351.2991638183594	1040.109985351562	1181.8505859375	298.266845703125	1019.955200195312	1118.161376953125	286.3190612792969	835.0368041992188	1330.898681640625	337.09375	805.7335815429688	1294.398315429688	349.8068542480469	939.8406982421875	1218.275024414062	320.360107421875	738.8004150390625	1306.736206054688	287.8381958007812	758.198486328125	1358.852783203125	-23.93019676208496	1396.392333984375	1101.054809570312	-91.29807281494141	1336.471801757812	1091.732055664062	-160.1685485839844	1077.970825195312	1121.522827148438	-76.40313720703125	1057.522827148438	1083.09765625	-134.6023559570312	852.8527221679688	1244.9453125	-206.0415649414062	846.3389892578125	1218.429443359375	-177.0015869140625	1014.377807617188	1152.88720703125	-164.5662536621094	684.0626220703125	1271.126586914062	-159.7333374023438	755.1951904296875	1280.066040039062	-214.0213317871094	763.3865966796875	1237.49951171875	63.97119522094727	1607.325073242188	1087.708862304688	176.7377624511719	1620.073486328125	1262.532348632812	76.61612701416016	1623.589599609375	1248.947631835938	208.2270660400391	1597.008178710938	1080.0009765625	253.7837677001953	915.0020751953125	1150.63916015625	-84.11837005615234	927.438232421875	1140.953247070312	-39.78450012207031	957.9808349609375	1244.940307617188	200.0499420166016	951.1817016601562	1265.23095703125	279.8617858886719	469.2280578613281	1191.028564453125	278.270263671875	608.9876708984375	1191.174438476562	310.9424743652344	50.28432846069336	1117.905517578125	307.6020812988281	256.2268371582031	1153.53662109375	242.5093231201172	45.59441757202148	1320.330932617188	204.6031799316406	31.45627784729004	1248.611694335938	318.0995788574219	44.32369232177734	1243.873291015625	245.5510711669922	41.16162872314453	1081.304809570312	-102.4474334716797	469.2168273925781	1152.561157226562	-105.0937957763672	725.8001708984375	1213.252319335938	-121.3578186035156	50.15893936157227	1108.334716796875	-108.3247451782227	354.2085571289062	1155.886108398438	-59.82727813720703	49.18145370483398	1296.90185546875	-21.55167198181152	42.84806060791016	1240.095947265625	-135.8734893798828	36.83570861816406	1209.806884765625	-77.22013092041016	52.98691558837891	1055.18359375	258.1768493652344	680.6886596679688	1374.845092773438	nan	nan	nan	
